<svg xmlns="http://www.w3.org/2000/svg" xmlns:xlink="http://www.w3.org/1999/xlink" width="129" zoomAndPan="magnify" viewBox="0 0 96.75 96.749999" height="129" preserveAspectRatio="xMidYMid meet" version="1.2"><defs><clipPath id="4005c114e7"><path d="M 27 24 L 74 24 L 74 71 L 27 71 Z M 27 24 "/></clipPath><clipPath id="f8cb455826"><path d="M 24.394531 30.308594 L 72.542969 23.519531 L 78.496094 65.742188 L 30.347656 72.53125 Z M 24.394531 30.308594 "/></clipPath><clipPath id="921567cb81"><path d="M 24.394531 30.308594 L 72.542969 23.519531 L 78.496094 65.742188 L 30.347656 72.53125 Z M 24.394531 30.308594 "/></clipPath><clipPath id="93ca136e5f"><path d="M 24.394531 30.308594 L 72.542969 23.519531 L 78.496094 65.742188 L 30.347656 72.53125 Z M 24.394531 30.308594 "/></clipPath></defs><g id="f1d3c26954"><path style="fill:none;stroke-width:2;stroke-linecap:round;stroke-linejoin:round;stroke:#1e88e5;stroke-opacity:1;stroke-miterlimit:4;" d="M 11.99992 21.99953 C 11.99992 21.99953 20.000191 17.99988 20.000191 11.99992 L 20.000191 5.00029 L 11.99992 2.00031 L 3.99965 5.00029 L 3.99965 11.99992 C 3.99965 17.99988 11.99992 21.99953 11.99992 21.99953 " transform="matrix(4.02086,0,0,4.02086,0.0000005,0.00000199485)"/><g clip-rule="nonzero" clip-path="url(#4005c114e7)"><g clip-rule="nonzero" clip-path="url(#f8cb455826)"><g clip-rule="nonzero" clip-path="url(#921567cb81)"><g clip-rule="nonzero" clip-path="url(#93ca136e5f)"><path style=" stroke:none;fill-rule:nonzero;fill:#000000;fill-opacity:1;" d="M 47.464844 70.117188 L 27 48.710938 L 31.855469 44.148438 L 46.265625 59.222656 L 67.382812 24.246094 L 73.113281 27.636719 Z M 47.464844 70.117188 "/></g></g></g></g></g></svg>