<svg xmlns="http://www.w3.org/2000/svg" xmlns:xlink="http://www.w3.org/1999/xlink" width="129" zoomAndPan="magnify" viewBox="0 0 96.75 96.749999" height="129" preserveAspectRatio="xMidYMid meet" version="1.2"><defs><clipPath id="42c01ac302"><path d="M 27 24 L 73 24 L 73 71 L 27 71 Z M 27 24 "/></clipPath><clipPath id="6910daec3c"><path d="M 24.394531 30.308594 L 72.542969 23.519531 L 78.496094 65.742188 L 30.347656 72.53125 Z M 24.394531 30.308594 "/></clipPath><clipPath id="bc97b99445"><path d="M 24.394531 30.308594 L 72.542969 23.519531 L 78.496094 65.742188 L 30.347656 72.53125 Z M 24.394531 30.308594 "/></clipPath></defs><g id="efee5ecde3"><path style="fill:none;stroke-width:2;stroke-linecap:round;stroke-linejoin:round;stroke:#1e88e5;stroke-opacity:1;stroke-miterlimit:4;" d="M 11.99992 21.99953 C 11.99992 21.99953 20.000191 17.99988 20.000191 11.99992 L 20.000191 5.00029 L 11.99992 2.00031 L 3.99965 5.00029 L 3.99965 11.99992 C 3.99965 17.99988 11.99992 21.99953 11.99992 21.99953 " transform="matrix(4.02086,0,0,4.02086,0.0000005,0.00000199485)"/><g clip-rule="nonzero" clip-path="url(#42c01ac302)"><g clip-rule="nonzero" clip-path="url(#6910daec3c)"><g clip-rule="nonzero" clip-path="url(#bc97b99445)"><path style=" stroke:none;fill-rule:nonzero;fill:#ffffff;fill-opacity:1;" d="M 47.390625 70.28125 L 27.011719 48.773438 L 31.832031 44.203125 L 46.183594 59.347656 L 67.144531 24.28125 L 72.847656 27.691406 Z M 47.390625 70.28125 "/></g></g></g></g></svg>